<svg width="17" height="17" viewBox="0 0 17 17" fill="none" xmlns="http://www.w3.org/2000/svg">
<path d="M9.1992 6.40615L6.68114 4.51079V11.9598L9.1992 10.0644L11.6347 8.23529L9.1992 6.40615ZM9.1992 6.40615L6.68114 4.51079V11.9598L9.1992 10.0644L11.6347 8.23529L9.1992 6.40615ZM9.1992 6.40615L6.68114 4.51079V11.9598L9.1992 10.0644L11.6347 8.23529L9.1992 6.40615ZM7.50674 1.67189V0C5.84729 0.165534 4.33646 0.827668 3.11458 1.82915L4.28692 3.01271C5.20333 2.30092 6.30137 1.82087 7.50674 1.67189ZM3.12284 4.17972L1.94224 3.00443C0.943269 4.22938 0.282794 5.74401 0.117676 7.40763H1.78537C1.93398 6.19923 2.41283 5.09843 3.12284 4.17972ZM1.78537 9.06296H0.117676C0.282794 10.7266 0.943269 12.2412 1.94224 13.4662L3.12284 12.2826C2.41283 11.3722 1.93398 10.2714 1.78537 9.06296ZM3.11458 14.6414C4.33646 15.6429 5.85555 16.3051 7.50674 16.4706V14.7987C6.30137 14.6497 5.20333 14.1697 4.28692 13.4579L3.11458 14.6414ZM16.5883 8.23529C16.5883 12.5061 13.3519 16.0319 9.1992 16.4706V14.7987C12.4355 14.3683 14.9371 11.5873 14.9371 8.23529C14.9371 4.88324 12.4355 2.10228 9.1992 1.67189V0C13.3519 0.438664 16.5883 3.96453 16.5883 8.23529Z" fill="white"/>
</svg>
