<svg width="622" height="987" viewBox="0 0 622 987" fill="none" xmlns="http://www.w3.org/2000/svg">
<path d="M4 4C85.3172 4 168.279 5.89432 243.62 39.8376C321.454 74.9042 364.35 148.643 392.698 225.35C411.116 275.187 437.544 329.376 427.652 384.301C422.171 414.729 390.888 442.791 371.853 465.251C340.948 501.718 307.099 532.896 271.835 565.175C252.112 583.229 237.201 606.19 217.931 623.78C211.255 629.875 202.138 644.028 201.297 653.294C196.203 709.396 201.112 757.721 233.302 806.763C251.763 834.888 271.504 860.978 295.84 884.341C337.979 924.796 397.025 943.057 450.813 962.13C502.997 980.633 562.896 983 618 983" stroke="white" stroke-width="7" stroke-linecap="round"/>
</svg>
