<svg width="32" height="32" viewBox="0 0 32 32" fill="none" xmlns="http://www.w3.org/2000/svg">
<path d="M1.45455 7.27273C1.04242 7.27273 0.697212 7.13358 0.418909 6.85527C0.139636 6.576 0 6.2303 0 5.81818V4.36364C0 3.15152 0.424242 2.12121 1.27273 1.27273C2.12121 0.424242 3.15152 0 4.36364 0H5.81818C6.2303 0 6.576 0.139151 6.85527 0.417454C7.13358 0.696727 7.27273 1.04242 7.27273 1.45455C7.27273 1.86667 7.13358 2.21188 6.85527 2.49018C6.576 2.76945 6.2303 2.90909 5.81818 2.90909H4.36364C3.95152 2.90909 3.6063 3.04824 3.328 3.32655C3.04873 3.60582 2.90909 3.95152 2.90909 4.36364V5.81818C2.90909 6.2303 2.76994 6.576 2.49164 6.85527C2.21236 7.13358 1.86667 7.27273 1.45455 7.27273ZM4.36364 32C3.15152 32 2.12121 31.5758 1.27273 30.7273C0.424242 29.8788 0 28.8485 0 27.6364V26.1818C0 25.7697 0.139636 25.4245 0.418909 25.1462C0.697212 24.8669 1.04242 24.7273 1.45455 24.7273C1.86667 24.7273 2.21236 24.8669 2.49164 25.1462C2.76994 25.4245 2.90909 25.7697 2.90909 26.1818V27.6364C2.90909 28.0485 3.04873 28.3937 3.328 28.672C3.6063 28.9513 3.95152 29.0909 4.36364 29.0909H5.81818C6.2303 29.0909 6.576 29.2305 6.85527 29.5098C7.13358 29.7881 7.27273 30.1333 7.27273 30.5455C7.27273 30.9576 7.13358 31.3028 6.85527 31.5811C6.576 31.8604 6.2303 32 5.81818 32H4.36364ZM26.1818 32C25.7697 32 25.4245 31.8604 25.1462 31.5811C24.8669 31.3028 24.7273 30.9576 24.7273 30.5455C24.7273 30.1333 24.8669 29.7881 25.1462 29.5098C25.4245 29.2305 25.7697 29.0909 26.1818 29.0909H27.6364C28.0485 29.0909 28.3937 28.9513 28.672 28.672C28.9513 28.3937 29.0909 28.0485 29.0909 27.6364V26.1818C29.0909 25.7697 29.2305 25.4245 29.5098 25.1462C29.7881 24.8669 30.1333 24.7273 30.5455 24.7273C30.9576 24.7273 31.3028 24.8669 31.5811 25.1462C31.8604 25.4245 32 25.7697 32 26.1818V27.6364C32 28.8485 31.5758 29.8788 30.7273 30.7273C29.8788 31.5758 28.8485 32 27.6364 32H26.1818ZM30.5455 7.27273C30.1333 7.27273 29.7881 7.13358 29.5098 6.85527C29.2305 6.576 29.0909 6.2303 29.0909 5.81818V4.36364C29.0909 3.95152 28.9513 3.60582 28.672 3.32655C28.3937 3.04824 28.0485 2.90909 27.6364 2.90909H26.1818C25.7697 2.90909 25.4245 2.76945 25.1462 2.49018C24.8669 2.21188 24.7273 1.86667 24.7273 1.45455C24.7273 1.04242 24.8669 0.696727 25.1462 0.417454C25.4245 0.139151 25.7697 0 26.1818 0H27.6364C28.8485 0 29.8788 0.424242 30.7273 1.27273C31.5758 2.12121 32 3.15152 32 4.36364V5.81818C32 6.2303 31.8604 6.576 31.5811 6.85527C31.3028 7.13358 30.9576 7.27273 30.5455 7.27273ZM16 24.4727L17.4545 23.6364V16.9455L23.2727 13.6V11.8909L21.8182 11.0545L16 14.4L10.1818 11.0545L8.72727 11.8909V13.6L14.5455 16.9455V23.6364L16 24.4727ZM14.5455 27.0545L7.27273 22.8364C6.81212 22.5697 6.45479 22.2124 6.20073 21.7644C5.9457 21.3154 5.81818 20.8364 5.81818 20.3273V11.8909C5.81818 11.3818 5.9457 10.9028 6.20073 10.4538C6.45479 10.0058 6.81212 9.64849 7.27273 9.38182L14.5455 5.16364C15.0061 4.89697 15.4909 4.76364 16 4.76364C16.5091 4.76364 16.9939 4.89697 17.4545 5.16364L24.7273 9.38182C25.1879 9.64849 25.5457 10.0058 25.8007 10.4538C26.0548 10.9028 26.1818 11.3818 26.1818 11.8909V20.3273C26.1818 20.8364 26.0548 21.3154 25.8007 21.7644C25.5457 22.2124 25.1879 22.5697 24.7273 22.8364L17.4545 27.0545C16.9939 27.3212 16.5091 27.4545 16 27.4545C15.4909 27.4545 15.0061 27.3212 14.5455 27.0545Z" fill="white"/>
</svg>
